# xmcd
#
# Track frame offsets: 
#        150
#        17685
#        29680
#        41895
#        58502
#        71037
#        91892
#        106807
#        121465
#        136740
#        155657
#        173065
#        180625
#        197820
#
# Disc length: 2742 seconds
#
# Revision: 0
# Processed by: cddbd v1.5.2PL0 Copyright (c) Steve Scherf et al.
# Submitted via: ExactAudioCopy v0.99pb4
#
DISCID=c00ab40e
DTITLE=Hummeripojat - Valomerkin jälkeen...
DYEAR=1997
DGENRE=
TTITLE0=Mäen Anna
TTITLE1=Mies ja pöllö
TTITLE2=Laivarotta Laitinen
TTITLE3=Lasinkuultava laulu
TTITLE4=Ryypätkääpä ja naitatti
TTITLE5=Kevätesikon kaipaus
TTITLE6=Uniprinsessa
TTITLE7=Creole love call
TTITLE8=Ratsupoliisi Kingin vaahterasii-rappi
TTITLE9=Under himlen så blå och skön
TTITLE10=Piilomatemaatikko Manninen
TTITLE11=Hetket joita ei saa olla ollutkaan
TTITLE12=Maailma jääkukkien takana
TTITLE13=Valomerkin jälkeen
EXTD=
EXTT0=
EXTT1=
EXTT2=
EXTT3=
EXTT4=
EXTT5=
EXTT6=
EXTT7=
EXTT8=
EXTT9=
EXTT10=
EXTT11=
EXTT12=
EXTT13=
PLAYORDER=
